<svg id="Capa_1" enable-background="new 0 0 512 512" height="512" viewBox="0 0 512 512" width="512" xmlns="http://www.w3.org/2000/svg"><path d="m287.791 225.407c16.697-10.574 27.814-29.198 27.814-50.381 0-32.866-26.738-59.605-59.605-59.605s-59.605 26.738-59.605 59.605c0 21.183 11.117 39.807 27.814 50.381-30.877 12.588-52.704 42.918-52.704 78.266v92.905h168.991v-92.905c-.001-35.348-21.828-65.678-52.705-78.266z"/><path d="m476.634 240.769c10.684-8.19 17.591-21.073 17.591-35.544 0-24.688-20.085-44.774-44.773-44.774s-44.774 20.086-44.774 44.774c0 14.471 6.907 27.354 17.591 35.544-20.911 10.133-35.366 31.572-35.366 56.325v68.554h125.097v-68.554c0-24.753-14.455-46.192-35.366-56.325z"/><path d="m89.731 240.769c10.684-8.19 17.591-21.073 17.591-35.544 0-24.688-20.086-44.774-44.774-44.774s-44.773 20.086-44.773 44.774c0 14.471 6.907 27.354 17.591 35.544-20.911 10.133-35.366 31.572-35.366 56.326v68.554h125.097v-68.554c0-24.754-14.455-46.193-35.366-56.326z"/></svg>